ply
format ascii 1.0
comment PCL generated
element vertex 154
property float x
property float y
property float z
property uchar red
property uchar green
property uchar blue
element camera 1
property float view_px
property float view_py
property float view_pz
property float x_axisx
property float x_axisy
property float x_axisz
property float y_axisx
property float y_axisy
property float y_axisz
property float z_axisx
property float z_axisy
property float z_axisz
property float focal
property float scalex
property float scaley
property float centerx
property float centery
property int viewportx
property int viewporty
property float k1
property float k2
end_header
-0.13450709 -0.060382862 -0.0084464625 255 255 255
-0.13560627 -0.059639975 -0.0083545167 255 255 255
-0.13483264 -0.059940267 -0.0082274936 255 255 255
-0.13666897 -0.058599163 -0.0083187306 255 255 255
-0.13689998 -0.057458851 -0.0082274936 255 255 255
-0.13683785 -0.05639613 -0.0082233734 255 255 255
-0.13596924 -0.055043597 -0.008129295 255 255 255
-0.13541602 -0.060168374 -0.0072604031 255 255 255
-0.13454849 -0.060253326 -0.0074127293 255 255 255
-0.13379623 -0.060143523 -0.0072715776 255 255 255
-0.13711558 -0.05903564 -0.0071061808 255 255 255
-0.13650262 -0.059382532 -0.0074385721 255 255 255
-0.13563955 -0.059752584 -0.0077058012 255 255 255
-0.13469057 -0.059969876 -0.0079433434 255 255 255
-0.13333938 -0.059760075 -0.007594706 255 255 255
-0.13262284 -0.059270211 -0.0074701291 255 255 255
-0.13724847 -0.058406305 -0.0073720198 255 255 255
-0.13677245 -0.058524776 -0.0078559695 255 255 255
-0.13222067 -0.058639776 -0.0070908917 255 255 255
-0.13740869 -0.057440322 -0.0074238302 255 255 255
-0.13695973 -0.057458851 -0.0079433434 255 255 255
-0.13727456 -0.056470241 -0.0073682037 255 255 255
-0.13682996 -0.056345511 -0.0078451019 255 255 255
-0.13134387 -0.056470219 -0.0074616764 255 255 255
-0.13713096 -0.055862069 -0.0071262722 255 255 255
-0.13650097 -0.055516783 -0.0074208896 255 255 255
-0.13594356 -0.055198111 -0.0077531682 255 255 255
-0.13602732 -0.054759432 -0.0070908922 255 255 255
-0.1355661 -0.05446279 -0.0076076118 255 255 255
-0.1345485 -0.054207746 -0.0074126455 255 255 255
-0.13631238 -0.060136683 -0.0064426935 255 255 255
-0.13556106 -0.060402073 -0.006570152 255 255 255
-0.13452007 -0.060571294 -0.0065693362 255 255 255
-0.13356064 -0.060310673 -0.0065247975 255 255 255
-0.13724273 -0.059270915 -0.0064782873 255 255 255
-0.13672233 -0.05977406 -0.0066190287 255 255 255
-0.13312773 -0.059992064 -0.0068067419 255 255 255
-0.13253191 -0.059473589 -0.0065422785 255 255 255
-0.13199113 -0.05902167 -0.0060449201 255 255 255
-0.13766822 -0.058482509 -0.0065454193 255 255 255
-0.13216113 -0.058696445 -0.0067357044 255 255 255
-0.13191786 -0.05841466 -0.0064685028 255 255 255
-0.13788962 -0.057510309 -0.0064843372 255 255 255
-0.13174744 -0.057484269 -0.0064634262 255 255 255
-0.13773237 -0.056488227 -0.0065021836 255 255 255
-0.1317596 -0.056593902 -0.006606088 255 255 255
-0.1372678 -0.055624716 -0.0065090111 255 255 255
-0.13673705 -0.055125616 -0.006608143 255 255 255
-0.13254026 -0.055592082 -0.0064978586 255 255 255
-0.1363547 -0.054771263 -0.0064627305 255 255 255
-0.1356625 -0.054498546 -0.0064745368 255 255 255
-0.1345485 -0.054438595 -0.0065225917 255 255 255
-0.1336146 -0.054728717 -0.0065631992 255 255 255
-0.13639946 -0.060159281 -0.0055280621 255 255 255
-0.13558586 -0.060477011 -0.00551609 255 255 255
-0.1345485 -0.060595036 -0.0055280621 255 255 255
-0.13350731 -0.060360059 -0.0055269604 255 255 255
-0.1328436 -0.060023051 -0.0054807025 255 255 255
-0.1374003 -0.059320588 -0.0055239676 255 255 255
-0.13682508 -0.059876848 -0.005534186 255 255 255
-0.13243096 -0.059619796 -0.0055348263 255 255 255
-0.13197589 -0.059046131 -0.0055280621 255 255 255
-0.13802564 -0.058169264 -0.0053859907 255 255 255
-0.13787755 -0.058552373 -0.0055564749 255 255 255
-0.13171966 -0.058443122 -0.0055280612 255 255 255
-0.13807938 -0.057458855 -0.0055280612 255 255 255
-0.13161711 -0.057415564 -0.0055714669 255 255 255
-0.1380254 -0.056748468 -0.0056701358 255 255 255
-0.13792719 -0.056421004 -0.0054976521 255 255 255
-0.13178395 -0.056577142 -0.0053427275 255 255 255
-0.13740887 -0.055444717 -0.0055163619 255 255 255
-0.13697644 -0.055043597 -0.0059542763 255 255 255
-0.13316132 -0.055067647 -0.0051018405 255 255 255
-0.13255443 -0.055607099 -0.0053316448 255 255 255
-0.13650919 -0.054698851 -0.0054730237 255 255 255
-0.13572443 -0.05441476 -0.0055371658 255 255 255
-0.1344966 -0.054428495 -0.0052155005 255 255 255
-0.13369383 -0.054761879 -0.0053453976 255 255 255
-0.13630275 -0.060104806 -0.0047725309 255 255 255
-0.13557024 -0.060293261 -0.0045318198 255 255 255
-0.13456552 -0.060435403 -0.0045348383 255 255 255
-0.13358602 -0.060232479 -0.0045436574 255 255 255
-0.13723211 -0.059232406 -0.0045854286 255 255 255
-0.13665484 -0.059706163 -0.0043952414 255 255 255
-0.13311647 -0.059879273 -0.0042358595 255 255 255
-0.13250458 -0.059466925 -0.0045001884 255 255 255
-0.13199113 -0.05902167 -0.0049255001 255 255 255
-0.13769729 -0.058473557 -0.00451364 255 255 255
-0.13209052 -0.058737565 -0.0042493897 255 255 255
-0.13185994 -0.058457877 -0.0045468751 255 255 255
-0.13801047 -0.057458851 -0.0048176902 255 255 255
-0.1378406 -0.057458851 -0.0044385148 255 255 255
-0.13172993 -0.057456732 -0.0045071635 255 255 255
-0.13771969 -0.056489509 -0.004502276 255 255 255
-0.13215327 -0.056201477 -0.0042654471 255 255 255
-0.13188769 -0.056508146 -0.0045712623 255 255 255
-0.13734221 -0.055623643 -0.0045451126 255 255 255
-0.13679674 -0.055125356 -0.0043782089 255 255 255
-0.13318738 -0.055057473 -0.0044592964 255 255 255
-0.13256624 -0.055586953 -0.0045291497 255 255 255
-0.13640495 -0.054795757 -0.0045431228 255 255 255
-0.13559362 -0.054489456 -0.0045226724 255 255 255
-0.1344973 -0.054464694 -0.0045633032 255 255 255
-0.13370904 -0.054751929 -0.0044860211 255 255 255
-0.13529567 -0.060117278 -0.0039265095 255 255 255
-0.13455509 -0.060139649 -0.0038856044 255 255 255
-0.13383812 -0.060080338 -0.0039652395 255 255 255
-0.13700183 -0.05902167 -0.0039652395 255 255 255
-0.13645016 -0.059301987 -0.0036434315 255 255 255
-0.13564107 -0.059607908 -0.0034342264 255 255 255
-0.13452664 -0.059722107 -0.0033172306 255 255 255
-0.13354665 -0.059488703 -0.0034746709 255 255 255
-0.13272716 -0.059230611 -0.0038024581 255 255 255
-0.13724697 -0.058448248 -0.0038203236 255 255 255
-0.13671932 -0.058579292 -0.0033182353 255 255 255
-0.13317247 -0.058649361 -0.0031055519 255 255 255
-0.13251276 -0.058485217 -0.0035580373 255 255 255
-0.13199164 -0.058162052 -0.0039662924 255 255 255
-0.13733 -0.057492439 -0.0035966905 255 255 255
-0.13685778 -0.057534479 -0.0030884629 255 255 255
-0.13249153 -0.057462353 -0.0033514968 255 255 255
-0.13198085 -0.057537578 -0.0039421176 255 255 255
-0.13726407 -0.056492142 -0.0036720077 255 255 255
-0.13675269 -0.056359027 -0.0031817474 255 255 255
-0.13312094 -0.056315433 -0.0031071922 255 255 255
-0.13253643 -0.056500316 -0.0035557728 255 255 255
-0.13709179 -0.055804767 -0.0038767564 255 255 255
-0.1364878 -0.055520643 -0.0035534946 255 255 255
-0.13562937 -0.055285823 -0.0033224246 255 255 255
-0.13452664 -0.055251841 -0.0032677071 255 255 255
-0.13352603 -0.055470988 -0.0034869264 255 255 255
-0.13273801 -0.055788644 -0.0038575837 255 255 255
-0.13625337 -0.05498277 -0.0039652395 255 255 255
-0.13548934 -0.054775074 -0.0038532452 255 255 255
-0.13450505 -0.054768406 -0.0038420546 255 255 255
-0.13383812 -0.054865871 -0.0039652395 255 255 255
-0.13529932 -0.059111241 -0.0028701811 255 255 255
-0.13461536 -0.059129816 -0.0028651671 255 255 255
-0.1339802 -0.05902167 -0.0029055139 255 255 255
-0.13635737 -0.058316659 -0.0027723205 255 255 255
-0.13556094 -0.058501083 -0.0026265797 255 255 255
-0.13452831 -0.058476858 -0.002586615 255 255 255
-0.1336513 -0.05844615 -0.0028065087 255 255 255
-0.13647096 -0.057450492 -0.0026598999 255 255 255
-0.13553557 -0.057454895 -0.0022676524 255 255 255
-0.1345517 -0.057452466 -0.0023407049 255 255 255
-0.13356316 -0.057454374 -0.0026760104 255 255 255
-0.1363432 -0.056525793 -0.0027322259 255 255 255
-0.13553554 -0.056439187 -0.0024743001 255 255 255
-0.13451578 -0.056498945 -0.0025003741 255 255 255
-0.13364966 -0.056481581 -0.0027768817 255 255 255
-0.13545261 -0.055821192 -0.0028520918 255 255 255
-0.13454607 -0.055806153 -0.0028366274 255 255 255
-0.1339802 -0.055896033 -0.0029280146 255 255 255
0 0 0 1 0 0 0 1 0 0 0 1 0 0 0 0 0 154 1 0 0
