ply
format ascii 1.0
comment PCL generated
element vertex 156
property float x
property float y
property float z
property uchar red
property uchar green
property uchar blue
element camera 1
property float view_px
property float view_py
property float view_pz
property float x_axisx
property float x_axisy
property float x_axisz
property float y_axisx
property float y_axisy
property float y_axisz
property float z_axisx
property float z_axisy
property float z_axisz
property float focal
property float scalex
property float scaley
property float centerx
property float centery
property int viewportx
property int viewporty
property float k1
property float k2
end_header
0.039805513 0.11555924 -0.0025572241 255 255 255
0.040401615 0.11517352 -0.0024282855 255 255 255
0.041463111 0.11513259 -0.0021921566 255 255 255
0.038711391 0.1167964 -0.0021949909 255 255 255
0.039249212 0.11653488 -0.0025242302 255 255 255
0.043865968 0.11660333 -0.002284216 255 255 255
0.037930835 0.1177199 -0.0020701548 255 255 255
0.038507752 0.11740051 -0.0024707201 255 255 255
0.037931822 0.118413 -0.0022588829 255 255 255
0.037934601 0.11929194 -0.0021802536 255 255 255
0.038376544 0.1196232 -0.0025301529 255 255 255
0.04294299 0.11999311 -0.0022603234 255 255 255
0.03869769 0.12036127 -0.002407013 255 255 255
0.039199751 0.1207137 -0.002596142 255 255 255
0.041908938 0.12089045 -0.0022603234 255 255 255
0.042573158 0.12065528 -0.0023911884 255 255 255
0.039676148 0.12124351 -0.0024590716 255 255 255
0.04040277 0.12145665 -0.0025703055 255 255 255
0.041505996 0.12134515 -0.0026011746 255 255 255
0.038783286 0.11599292 -0.0011237373 255 255 255
0.039522141 0.11569813 -0.0014734413 255 255 255
0.040488202 0.11534676 -0.0014078876 255 255 255
0.041340645 0.1153378 -0.0014078876 255 255 255
0.042532049 0.11571908 -0.0014333538 255 255 255
0.037921533 0.11685558 -0.0012769511 255 255 255
0.038495418 0.11645278 -0.0015280942 255 255 255
0.03918669 0.11609475 -0.0018493234 255 255 255
0.042874087 0.116015 -0.0011237373 255 255 255
0.043380216 0.11654384 -0.0014186003 255 255 255
0.037716083 0.11745321 -0.0015172283 255 255 255
0.038191136 0.1171184 -0.0019761731 255 255 255
0.043689091 0.11736815 -0.001417006 255 255 255
0.037489962 0.11843026 -0.0015676505 255 255 255
0.043694638 0.11847411 -0.0015756001 255 255 255
0.037614632 0.11955368 -0.0015217188 255 255 255
0.038048763 0.11999311 -0.0019761731 255 255 255
0.042834822 0.11999311 -0.0019761731 255 255 255
0.043322984 0.11956143 -0.0015278144 255 255 255
0.037874356 0.12034184 -0.0012909037 255 255 255
0.038350489 0.12065346 -0.0016804753 255 255 255
0.041908938 0.12090985 -0.0019761731 255 255 255
0.04257318 0.12062495 -0.0016047624 255 255 255
0.043056469 0.12026282 -0.0012205055 255 255 255
0.038663503 0.12114428 -0.0013714663 255 255 255
0.039457493 0.12137369 -0.001556547 255 255 255
0.040488202 0.1215621 -0.0015499591 255 255 255
0.041477289 0.12132373 -0.0015419945 255 255 255
0.042162638 0.1211158 -0.0012459805 255 255 255
0.038783286 0.11589161 -0.00055543683 255 255 255
0.039414808 0.11560833 -0.00062163291 255 255 255
0.040488202 0.11538483 -0.00055543683 255 255 255
0.041624792 0.11547828 -0.00044177673 255 255 255
0.042483207 0.11578665 -0.00052960502 255 255 255
0.037833381 0.11674245 -0.00052960502 255 255 255
0.03838959 0.11618164 -0.00055543688 255 255 255
0.042807758 0.116015 -0.00043275929 255 255 255
0.043297023 0.11654119 -0.00054910744 255 255 255
0.03743038 0.11746521 -0.00059934327 255 255 255
0.043677267 0.11733849 -0.0005557292 255 255 255
0.037201669 0.11843028 -0.00055543688 255 255 255
0.043795396 0.11843028 -0.00055543688 255 255 255
0.037336666 0.11960444 -0.00056236226 255 255 255
0.043575522 0.11958156 -0.00059267756 255 255 255
0.037771862 0.12051459 -0.00055085332 255 255 255
0.038143869 0.12091717 -0.00083958707 255 255 255
0.042794939 0.12081503 -0.00060589402 255 255 255
0.043186419 0.12037711 -0.00050504808 255 255 255
0.038554553 0.12128261 -0.00054773304 255 255 255
0.039526306 0.12164675 -0.00052407524 255 255 255
0.040486753 0.12172394 -0.00065268402 255 255 255
0.041481465 0.12157444 -0.00053418713 255 255 255
0.042348746 0.12118814 -0.00051723846 255 255 255
0.038783286 0.11596128 0.00015493878 255 255 255
0.039509647 0.1157133 0.00042895362 255 255 255
0.040582918 0.11561447 0.00065090903 255 255 255
0.041591812 0.1156524 0.00054816937 255 255 255
0.04226695 0.11579238 0.00029255182 255 255 255
0.037899528 0.11679696 0.00037387741 255 255 255
0.038427182 0.11632398 0.00050465588 255 255 255
0.039065685 0.1160141 0.00086749491 255 255 255
0.042648401 0.11616236 0.00057950476 255 255 255
0.043192413 0.11664184 0.00036358807 255 255 255
0.037534919 0.11743876 0.0004301577 255 255 255
0.043545496 0.11742768 0.00046191394 255 255 255
0.037306875 0.11843028 0.00050167751 255 255 255
0.043689579 0.11843844 0.00053506542 255 255 255
0.037422135 0.11958075 0.00045359458 255 255 255
0.043561965 0.11956107 0.00049545377 255 255 255
0.037785795 0.1204299 0.00038774702 255 255 255
0.038155455 0.12082794 0.00056483905 255 255 255
0.042770557 0.12084925 0.00054003956 255 255 255
0.043180868 0.12041363 0.00038379821 255 255 255
0.038615897 0.12123679 0.00037635589 255 255 255
0.039470494 0.12163118 0.00046110537 255 255 255
0.040488198 0.12173092 0.00049851328 255 255 255
0.041486282 0.12158368 0.00047701321 255 255 255
0.042321969 0.12121352 0.0004132608 255 255 255
0.039777812 0.11589581 0.0011494795 255 255 255
0.04065869 0.1158243 0.0012422542 255 255 255
0.041372217 0.11584257 0.001224568 255 255 255
0.038562521 0.11664914 0.0013723668 255 255 255
0.039421801 0.11625052 0.0015264024 255 255 255
0.040488202 0.11610086 0.0017222503 255 255 255
0.041570667 0.11618734 0.0016708226 255 255 255
0.042474151 0.11654532 0.0014038143 255 255 255
0.043045539 0.11690672 0.0011099319 255 255 255
0.037842534 0.11749167 0.0012733738 255 255 255
0.03825409 0.11730254 0.0016814062 255 255 255
0.042779647 0.11723159 0.0017449852 255 255 255
0.043172274 0.11751252 0.0013749372 255 255 255
0.03773696 0.11841057 0.0015137582 255 255 255
0.043258626 0.11844967 0.0014941454 255 255 255
0.037787106 0.11955201 0.0014454186 255 255 255
0.03820755 0.11989838 0.0018111607 255 255 255
0.042838331 0.11987944 0.0017063776 255 255 255
0.043187119 0.11949431 0.0013998793 255 255 255
0.037947342 0.12025625 0.0011226226 255 255 255
0.038457874 0.12056615 0.0014777033 255 255 255
0.039121732 0.1208539 0.0017824064 255 255 255
0.041811254 0.12088196 0.0017624656 255 255 255
0.042516861 0.12056346 0.0014750536 255 255 255
0.043030545 0.12025157 0.0011263976 255 255 255
0.038791627 0.12112387 0.0011374692 255 255 255
0.039521646 0.12124798 0.0014215512 255 255 255
0.040488202 0.12133069 0.0015022694 255 255 255
0.041417073 0.12123916 0.001409231 255 255 255
0.042126577 0.121085 0.0011494795 255 255 255
0.039549459 0.11673342 0.0021298209 255 255 255
0.040555131 0.11657008 0.0022432173 255 255 255
0.041461252 0.11666706 0.0021891764 255 255 255
0.042192619 0.11686782 0.0020016225 255 255 255
0.038608413 0.11752021 0.0021354279 255 255 255
0.039494283 0.11743947 0.0025718703 255 255 255
0.040466346 0.11744265 0.0027806398 255 255 255
0.041493338 0.11743044 0.0026325681 255 255 255
0.042435873 0.11747531 0.0021845747 255 255 255
0.037978608 0.1188565 0.0020019303 255 255 255
0.038490381 0.1184142 0.0023492451 255 255 255
0.039456956 0.1184228 0.0028461337 255 255 255
0.040488202 0.11800405 0.0029746683 255 255 255
0.041497502 0.11843027 0.0028592015 255 255 255
0.042492066 0.11844284 0.0023431422 255 255 255
0.038519338 0.11952322 0.002270526 255 255 255
0.039474048 0.11958563 0.0027232675 255 255 255
0.040471718 0.11963838 0.00286603 255 255 255
0.041491177 0.11957856 0.0027198864 255 255 255
0.042439491 0.11952175 0.0022357488 255 255 255
0.038683023 0.12025173 0.0020265209 255 255 255
0.039523687 0.12052617 0.0022476986 255 255 255
0.040511705 0.12057149 0.0023607269 255 255 255
0.041457731 0.12052589 0.0022273476 255 255 255
0.042269066 0.12021983 0.0020051079 255 255 255
0.040488202 0.1210088 0.0020019303 255 255 255
0.039919887 0.11857234 0.003005449 255 255 255
0.040488198 0.11857235 0.0030349831 255 255 255
0.040488202 0.11914064 0.0030005018 255 255 255
0 0 0 1 0 0 0 1 0 0 0 1 0 0 0 0 0 156 1 0 0
