ply
format ascii 1.0
comment PCL generated
element vertex 147
property float x
property float y
property float z
property uchar red
property uchar green
property uchar blue
element camera 1
property float view_px
property float view_py
property float view_pz
property float x_axisx
property float x_axisy
property float x_axisz
property float y_axisx
property float y_axisy
property float y_axisz
property float z_axisx
property float z_axisy
property float z_axisz
property float focal
property float scalex
property float scaley
property float centerx
property float centery
property int viewportx
property int viewporty
property float k1
property float k2
end_header
0.014694387 0.0014854326 0.065536395 255 255 255
0.015023206 0.0029230835 0.065793708 255 255 255
0.015767103 -0.0010549901 0.066972308 255 255 255
0.016538382 -0.0010502728 0.066801749 255 255 255
0.017187854 -0.0010549901 0.066866554 255 255 255
0.014914651 -0.00012289264 0.066597797 255 255 255
0.015537481 -0.00056880346 0.066632226 255 255 255
0.016360881 -0.00080805551 0.066540137 255 255 255
0.017495515 -0.00080772873 0.066478603 255 255 255
0.018648665 -0.00036032524 0.066490032 255 255 255
0.013959606 0.00093407655 0.066788234 255 255 255
0.0144409 0.00054795883 0.066403456 255 255 255
0.018907862 5.8201171e-05 0.066646159 255 255 255
0.019339552 0.00054238574 0.066359147 255 255 255
0.013881588 0.0015835542 0.066760987 255 255 255
0.014156867 0.0014803357 0.06629508 255 255 255
0.019392943 0.0015299362 0.066379257 255 255 255
0.013894503 0.0021653792 0.066855609 255 255 255
0.014336937 0.002472637 0.066470183 255 255 255
0.018770859 0.0026348578 0.066501848 255 255 255
0.019338192 0.0023816579 0.066315062 255 255 255
0.014695956 0.0034403249 0.066670403 255 255 255
0.015300808 0.0038334697 0.066517673 255 255 255
0.017639477 0.0038555807 0.066341713 255 255 255
0.018378897 0.0034770817 0.0664519 255 255 255
0.015561514 0.0041321372 0.066730171 255 255 255
0.016528944 0.0042260243 0.066542782 255 255 255
0.017405193 0.0041067805 0.066717602 255 255 255
0.014898209 -0.0010672448 0.067755789 255 255 255
0.015503097 -0.0012512354 0.067516059 255 255 255
0.01647749 -0.0014197321 0.067437932 255 255 255
0.017526086 -0.0013008015 0.067472324 255 255 255
0.018190086 -0.0010956345 0.067643635 255 255 255
0.014468845 -0.00047455696 0.067507103 255 255 255
0.015264959 -0.00082517689 0.067068703 255 255 255
0.018644558 -0.00057903508 0.067389898 255 255 255
0.019141581 -0.00023420433 0.067820482 255 255 255
0.013711507 0.00060270802 0.067647927 255 255 255
0.014064942 0.00037055931 0.067072384 255 255 255
0.019363085 0.00048742225 0.067478538 255 255 255
0.013555612 0.0014546714 0.067466997 255 255 255
0.019518834 0.0015023669 0.067442112 255 255 255
0.01362951 0.0025087651 0.067460187 255 255 255
0.019376416 0.0025307562 0.067462072 255 255 255
0.013862461 0.003228562 0.067735389 255 255 255
0.014271516 0.0035886751 0.067409836 255 255 255
0.018704025 0.0036144324 0.067385972 255 255 255
0.019139042 0.0032482478 0.067738436 255 255 255
0.014789353 0.0041316999 0.067555316 255 255 255
0.015459634 0.0044779438 0.067502916 255 255 255
0.01647749 0.0046373671 0.067482233 255 255 255
0.017478637 0.0044563944 0.067494124 255 255 255
0.018166974 0.0041556642 0.067569539 255 255 255
0.014902435 -0.0010641649 0.068523653 255 255 255
0.01543457 -0.0013954047 0.068493128 255 255 255
0.016487341 -0.0016120138 0.068438962 255 255 255
0.017589804 -0.0014354718 0.068520844 255 255 255
0.018258046 -0.0011335968 0.068528093 255 255 255
0.013958064 -0.00020255425 0.068351053 255 255 255
0.014337291 -0.00057035463 0.068560272 255 255 255
0.018753344 -0.00077076862 0.068493135 255 255 255
0.019156717 -0.00033250562 0.068493135 255 255 255
0.013614093 0.00045563007 0.068498842 255 255 255
0.019522162 0.00044929332 0.068520777 255 255 255
0.013350052 0.0015023671 0.068493128 255 255 255
0.019673172 0.0015023671 0.068493135 255 255 255
0.013484574 0.002531491 0.0684634 255 255 255
0.01951959 0.0025619869 0.06852027 255 255 255
0.013830855 0.0032839375 0.068490013 255 255 255
0.0142033 0.0037722439 0.068493128 255 255 255
0.018787043 0.0038322359 0.068493135 255 255 255
0.019185504 0.0033624587 0.068493135 255 255 255
0.014761722 0.0042458395 0.068487242 255 255 255
0.015507287 0.0046165832 0.068529181 255 255 255
0.016477488 0.0047756075 0.068493128 255 255 255
0.017446784 0.0046212515 0.068509936 255 255 255
0.018237906 0.0042612138 0.068531446 255 255 255
0.015506357 -0.0011878731 0.069413252 255 255 255
0.016497787 -0.0013204199 0.069512419 255 255 255
0.017412415 -0.0012163948 0.069449671 255 255 255
0.018065814 -0.0010702728 0.069224395 255 255 255
0.014573114 -0.00046863436 0.069466315 255 255 255
0.015257175 -0.0008433339 0.06985531 255 255 255
0.017736169 -0.00088431221 0.069842853 255 255 255
0.018544134 -0.00055782666 0.06952522 255 255 255
0.019135116 -0.00019907483 0.069125146 255 255 255
0.013785474 0.00058092375 0.069414109 255 255 255
0.014171125 0.00020106853 0.069794916 255 255 255
0.018910339 0.00016720316 0.069900967 255 255 255
0.019299552 0.0005560639 0.06946525 255 255 255
0.013608538 0.0014787104 0.069488026 255 255 255
0.019439129 0.0014846071 0.069523998 255 255 255
0.01369846 0.0024677084 0.069443278 255 255 255
0.01406987 0.0029089274 0.069901675 255 255 255
0.018912917 0.0029230835 0.069942124 255 255 255
0.019311048 0.0024514194 0.069505095 255 255 255
0.013866941 0.0031584722 0.069156148 255 255 255
0.014406924 0.0035851183 0.069532469 255 255 255
0.018654257 0.0035732137 0.069576047 255 255 255
0.01917007 0.0031900823 0.069199614 255 255 255
0.014774 0.0040986952 0.069205895 255 255 255
0.015438241 0.0043123257 0.069492504 255 255 255
0.01647749 0.0044949683 0.069497012 255 255 255
0.017495219 0.0043422212 0.069523625 255 255 255
0.018181978 0.004137102 0.06932272 255 255 255
0.016335413 -0.0010549901 0.070037246 255 255 255
0.014889091 -0.00022705174 0.070223771 255 255 255
0.015493214 -0.00045298031 0.070449948 255 255 255
0.016477492 -0.00055876648 0.070551053 255 255 255
0.017450001 -0.00046463727 0.070391715 255 255 255
0.018164556 -0.0002416166 0.070246972 255 255 255
0.014570583 0.00054006872 0.070477359 255 255 255
0.015351649 0.00013794721 0.070836671 255 255 255
0.016903719 8.1610895e-05 0.070966549 255 255 255
0.017622177 0.00029521497 0.070816092 255 255 255
0.018480351 0.00053031271 0.070450403 255 255 255
0.013976228 0.0016444447 0.070198037 255 255 255
0.014319152 0.0014577048 0.070554107 255 255 255
0.018476589 0.0015023667 0.070627771 255 255 255
0.019093579 0.0015591981 0.070121616 255 255 255
0.014441341 0.0025184229 0.07050506 255 255 255
0.015103136 0.0029230835 0.070826262 255 255 255
0.017739208 0.0026389481 0.070924833 255 255 255
0.018487941 0.0024954935 0.070528165 255 255 255
0.019014632 0.0020706775 0.070198037 255 255 255
0.014735917 0.0033338943 0.070261471 255 255 255
0.015457169 0.0035379461 0.070563883 255 255 255
0.016502561 0.0036455665 0.070679791 255 255 255
0.017492535 0.0035342479 0.07055825 255 255 255
0.018268159 0.003352958 0.070295803 255 255 255
0.01570926 0.0040561454 0.070149623 255 255 255
0.01647749 0.0040865992 0.070232727 255 255 255
0.017252577 0.0040581645 0.070165031 255 255 255
0.015502704 0.00066827895 0.071137369 255 255 255
0.01644532 0.00048120596 0.071216874 255 255 255
0.017315928 0.00067301415 0.071062215 255 255 255
0.014914885 0.0015385868 0.071050018 255 255 255
0.015503888 0.0015023671 0.071306445 255 255 255
0.016587578 0.0014970533 0.071399137 255 255 255
0.017563229 0.0014626057 0.071097203 255 255 255
0.014936012 0.0020706775 0.071038298 255 255 255
0.015496935 0.0024778314 0.071173087 255 255 255
0.016498789 0.0024837186 0.07131575 255 255 255
0.017362343 0.0024494578 0.071125038 255 255 255
0.015767103 0.0030665221 0.071050487 255 255 255
0.0164166 0.0031764072 0.071037978 255 255 255
0.017187854 0.0030054869 0.071050487 255 255 255
0 0 0 1 0 0 0 1 0 0 0 1 0 0 0 0 0 147 1 0 0
