ply
format ascii 1.0
comment PCL generated
element vertex 140
property float x
property float y
property float z
property uchar red
property uchar green
property uchar blue
element camera 1
property float view_px
property float view_py
property float view_pz
property float x_axisx
property float x_axisy
property float x_axisz
property float y_axisx
property float y_axisy
property float y_axisz
property float z_axisx
property float z_axisy
property float z_axisz
property float focal
property float scalex
property float scaley
property float centerx
property float centery
property int viewportx
property int viewporty
property float k1
property float k2
end_header
0.070039839 -0.10202245 -0.00027128658 255 255 255
0.067845941 -0.10107596 -0.00020936481 255 255 255
0.068505533 -0.10137609 -0.00044947347 255 255 255
0.069452837 -0.10178735 -0.00051431474 255 255 255
0.070445523 -0.10186554 -0.00052043219 255 255 255
0.071412981 -0.10150433 -0.00059424544 255 255 255
0.06772761 -0.10049467 -0.00036585896 255 255 255
0.07181222 -0.10078407 -0.00034232414 255 255 255
0.06775777 -0.098633811 -0.00059899286 255 255 255
0.07243143 -0.098453686 -0.00047297991 255 255 255
0.068051085 -0.097381994 -0.00055543683 255 255 255
0.070901737 -0.097084686 -0.0004133617 255 255 255
0.071528561 -0.097477779 -0.00057463354 255 255 255
0.07240738 -0.097571492 -0.00068376824 255 255 255
0.070396028 -0.09666355 -0.00047019377 255 255 255
0.068624176 -0.10217131 0.00065447891 255 255 255
0.069491841 -0.10224276 0.00045400285 255 255 255
0.070436306 -0.10221058 0.00055448542 255 255 255
0.071176447 -0.10200186 0.00086532929 255 255 255
0.067538708 -0.10138715 0.00049366493 255 255 255
0.068374492 -0.10183181 0.00021335692 255 255 255
0.069187388 -0.10195281 1.286366e-05 255 255 255
0.070808291 -0.10191974 0.00016441841 255 255 255
0.071507156 -0.10154057 0.00042662461 255 255 255
0.072045445 -0.1011005 0.00069618621 255 255 255
0.066827655 -0.1004964 0.00071560463 255 255 255
0.06726969 -0.10057355 0.00017937465 255 255 255
0.071904965 -0.10079181 1.286366e-05 255 255 255
0.072231829 -0.10050236 0.00044957976 255 255 255
0.066777296 -0.099584199 0.00078017649 255 255 255
0.067280792 -0.099284247 0.00038417932 255 255 255
0.072452739 -0.09948165 0.00047163214 255 255 255
0.067528822 -0.09845522 0.00039625936 255 255 255
0.072286822 -0.098487034 0.0004554484 255 255 255
0.067769587 -0.097909659 0.00038448744 255 255 255
0.068198808 -0.097221524 0.00029702135 255 255 255
0.071559533 -0.097421892 0.00039528168 255 255 255
0.072060727 -0.09790802 0.00059747347 255 255 255
0.068781838 -0.096753024 0.00029702135 255 255 255
0.069471538 -0.096550308 0.00029702135 255 255 255
0.070489429 -0.096659981 0.00045564715 255 255 255
0.071128689 -0.096902966 0.00077061256 255 255 255
0.068497479 -0.10229687 0.0014966594 255 255 255
0.069443315 -0.10252354 0.0013963412 255 255 255
0.070436075 -0.1024842 0.0013857174 255 255 255
0.071218044 -0.10216651 0.0014224985 255 255 255
0.066921897 -0.10106469 0.0014336297 255 255 255
0.067463838 -0.10163655 0.0013914325 255 255 255
0.071700677 -0.10172271 0.0014467026 255 255 255
0.07207191 -0.10126148 0.0015065038 255 255 255
0.066617027 -0.10052406 0.0014070781 255 255 255
0.072451718 -0.10051615 0.0014122279 255 255 255
0.066488765 -0.099457338 0.0013995635 255 255 255
0.072653279 -0.099545911 0.0014068523 255 255 255
0.066694014 -0.09874209 0.0017463381 255 255 255
0.06716577 -0.098313749 0.0013389131 255 255 255
0.072508276 -0.098510787 0.0014286035 255 255 255
0.067608729 -0.097522564 0.0015016287 255 255 255
0.071621418 -0.097200468 0.0014006316 255 255 255
0.072106488 -0.097736843 0.0014013448 255 255 255
0.068536237 -0.096640684 0.0014274149 255 255 255
0.069471538 -0.096402615 0.0014336297 255 255 255
0.070484385 -0.096521147 0.0014336297 255 255 255
0.071170472 -0.096817493 0.0014533197 255 255 255
0.068620853 -0.10223077 0.0023524875 255 255 255
0.069436431 -0.10241445 0.0025100233 255 255 255
0.070413142 -0.10231098 0.002411793 255 255 255
0.071094379 -0.10215832 0.0020019303 255 255 255
0.066949524 -0.10106352 0.0020966472 255 255 255
0.067479059 -0.10148491 0.0024384246 255 255 255
0.068164825 -0.10191043 0.0026662874 255 255 255
0.070879884 -0.10192155 0.0028419038 255 255 255
0.071536645 -0.10163631 0.0024492203 255 255 255
0.072072454 -0.10113057 0.0023310841 255 255 255
0.066752136 -0.10050323 0.0024188966 255 255 255
0.067044921 -0.10079181 0.0028543661 255 255 255
0.072293788 -0.10054361 0.0024825465 255 255 255
0.066551775 -0.099497885 0.0025395134 255 255 255
0.072487757 -0.099530995 0.0024410239 255 255 255
0.06675598 -0.098544098 0.0024668954 255 255 255
0.072321959 -0.098488614 0.0024719974 255 255 255
0.067542449 -0.097563058 0.002540247 255 255 255
0.068107709 -0.097084321 0.0026585904 255 255 255
0.070899852 -0.097094774 0.0028588763 255 255 255
0.071566202 -0.097373888 0.0024766068 255 255 255
0.072074197 -0.097823329 0.0022748797 255 255 255
0.068610802 -0.096750654 0.0023706169 255 255 255
0.069496617 -0.096627533 0.0024789958 255 255 255
0.070447855 -0.096718758 0.0023983731 255 255 255
0.071144231 -0.096877754 0.0020966472 255 255 255
0.069471538 -0.10207921 0.0031385163 255 255 255
0.070039839 -0.10205667 0.0031385163 255 255 255
0.067653731 -0.1011881 0.0032526394 255 255 255
0.068466067 -0.10150161 0.0035078274 255 255 255
0.069473684 -0.10162608 0.0036869764 255 255 255
0.070478551 -0.10154809 0.0035483509 255 255 255
0.071312331 -0.1012916 0.0032777826 255 255 255
0.066914178 -0.10016038 0.0030723999 255 255 255
0.067441918 -0.10052227 0.0035424074 255 255 255
0.068144716 -0.10080164 0.0039754068 255 255 255
0.070814289 -0.10083601 0.0039871749 255 255 255
0.071519017 -0.100573 0.0035890229 255 255 255
0.072043002 -0.10032343 0.003129639 255 255 255
0.06687133 -0.099453762 0.0033227073 255 255 255
0.067327179 -0.099524178 0.0038243928 255 255 255
0.071650542 -0.099513113 0.0037412629 255 255 255
0.072103754 -0.099513113 0.0032452403 255 255 255
0.06690111 -0.09865132 0.0032266395 255 255 255
0.067430824 -0.098447748 0.0036380747 255 255 255
0.068166688 -0.098251082 0.0039719795 255 255 255
0.070810698 -0.098217674 0.003987961 255 255 255
0.071510434 -0.098462157 0.0036253536 255 255 255
0.072039299 -0.098645784 0.0031502764 255 255 255
0.067719966 -0.097782992 0.0033094154 255 255 255
0.0684902 -0.097492315 0.0035361205 255 255 255
0.069471546 -0.097429954 0.0036636028 255 255 255
0.070443287 -0.097503014 0.0035270667 255 255 255
0.071317658 -0.097755507 0.0032896402 255 255 255
0.069471538 -0.096958481 0.0031385163 255 255 255
0.06876117 -0.10107596 0.00405803 255 255 255
0.069471538 -0.10107597 0.0041672182 255 255 255
0.070181914 -0.10107596 0.0041020405 255 255 255
0.067766644 -0.1002235 0.0040118289 255 255 255
0.068540432 -0.10050247 0.0042727641 255 255 255
0.069505505 -0.10048364 0.0044489251 255 255 255
0.070399232 -0.10049178 0.0043043252 255 255 255
0.071176447 -0.1002235 0.0040403944 255 255 255
0.067776792 -0.099371038 0.0041598422 255 255 255
0.06849353 -0.09954609 0.0044723465 255 255 255
0.069503829 -0.099480338 0.0046118158 255 255 255
0.070509717 -0.099525861 0.0044195699 255 255 255
0.071176447 -0.099513128 0.0041255546 255 255 255
0.067766644 -0.098802745 0.0040876758 255 255 255
0.068523683 -0.098605886 0.004270135 255 255 255
0.069471531 -0.098546311 0.004400562 255 255 255
0.070429511 -0.098548561 0.0042602797 255 255 255
0.071176447 -0.098802745 0.0040400368 255 255 255
0.068903238 -0.09795028 0.00405388 255 255 255
0.069471538 -0.09795028 0.0040848744 255 255 255
0.070039839 -0.09795028 0.0040315581 255 255 255
0 0 0 1 0 0 0 1 0 0 0 1 0 0 0 0 0 140 1 0 0
