ply
format ascii 1.0
comment PCL generated
element vertex 172
property float x
property float y
property float z
property uchar red
property uchar green
property uchar blue
element camera 1
property float view_px
property float view_py
property float view_pz
property float x_axisx
property float x_axisy
property float x_axisz
property float y_axisx
property float y_axisy
property float y_axisz
property float z_axisx
property float z_axisy
property float z_axisz
property float focal
property float scalex
property float scaley
property float centerx
property float centery
property int viewportx
property int viewporty
property float k1
property float k2
end_header
-0.1481698 0.012881314 -0.0072073205 255 255 255
-0.14751258 0.01259092 -0.0075254282 255 255 255
-0.14906499 0.01366893 -0.0071694567 255 255 255
-0.14855777 0.013355811 -0.0075424723 255 255 255
-0.14420958 0.013243792 -0.0072454098 255 255 255
-0.14923188 0.014410438 -0.0072618183 255 255 255
-0.14878894 0.014341907 -0.0077880053 255 255 255
-0.14919207 0.015477532 -0.0072755632 255 255 255
-0.14879827 0.01566432 -0.0077186548 255 255 255
-0.14416924 0.015628695 -0.0070738727 255 255 255
-0.14905806 0.016307982 -0.0071068313 255 255 255
-0.14848675 0.016609531 -0.0074601169 255 255 255
-0.14746825 0.016743794 -0.0075513422 255 255 255
-0.14686793 0.01677545 -0.00744608 255 255 255
-0.14430761 0.016689101 -0.0072339498 255 255 255
-0.14818771 0.01712632 -0.0070854831 255 255 255
-0.14732288 0.017494414 -0.0074017337 255 255 255
-0.14650853 0.017731089 -0.007537582 255 255 255
-0.1454813 0.017593144 -0.0075092958 255 255 255
-0.14705111 0.018008424 -0.0070908922 255 255 255
-0.14662489 0.018025516 -0.0070908922 255 255 255
-0.14902812 0.012877665 -0.0062162187 255 255 255
-0.14845929 0.012701984 -0.0065102857 255 255 255
-0.14757746 0.012298625 -0.0065815509 255 255 255
-0.14663376 0.012309104 -0.0065173637 255 255 255
-0.14567973 0.012821925 -0.0065794215 255 255 255
-0.14934623 0.013449028 -0.0065068109 255 255 255
-0.14880723 0.013118409 -0.006863242 255 255 255
-0.14534621 0.013054919 -0.0062384414 255 255 255
-0.1447771 0.013448942 -0.0065401569 255 255 255
-0.14974736 0.014448488 -0.0065443181 255 255 255
-0.14436761 0.014370335 -0.0065820259 255 255 255
-0.14974657 0.015598354 -0.0065589035 255 255 255
-0.14458707 0.015674645 -0.0064998781 255 255 255
-0.1493769 0.016550904 -0.0065330588 255 255 255
-0.14896743 0.016846491 -0.0068067419 255 255 255
-0.14719319 0.016883908 -0.0068699005 255 255 255
-0.14640056 0.016860183 -0.0064533949 255 255 255
-0.14563055 0.016631518 -0.0063644731 255 255 255
-0.14433587 0.016508676 -0.0064290413 255 255 255
-0.14906456 0.017127981 -0.0063450555 255 255 255
-0.1484607 0.017521175 -0.0065378221 255 255 255
-0.147424 0.01738582 -0.0065183211 255 255 255
-0.14652768 0.01719722 -0.0064693843 255 255 255
-0.14537342 0.017796421 -0.0066160145 255 255 255
-0.14464554 0.01736852 -0.0064400118 255 255 255
-0.14818771 0.018066658 -0.0062384414 255 255 255
-0.14746296 0.018241957 -0.006464567 255 255 255
-0.14645496 0.018296404 -0.0065491218 255 255 255
-0.14574139 0.01819597 -0.0063596079 255 255 255
-0.14912193 0.012839215 -0.0055122767 255 255 255
-0.14847757 0.012435249 -0.0055446126 255 255 255
-0.14739572 0.012076313 -0.0054983152 255 255 255
-0.14649385 0.012153867 -0.0054634837 255 255 255
-0.14558499 0.012697989 -0.0052315532 255 255 255
-0.1496174 0.013435056 -0.0055336803 255 255 255
-0.14517243 0.013123346 -0.0052912738 255 255 255
-0.14485538 0.013559905 -0.0053859907 255 255 255
-0.15008076 0.014636423 -0.0054175612 255 255 255
-0.14993799 0.014138215 -0.0057254657 255 255 255
-0.14450422 0.014582443 -0.0054888767 255 255 255
-0.15008794 0.015539394 -0.005499647 255 255 255
-0.14994536 0.015994025 -0.0059542763 255 255 255
-0.14501603 0.015994025 -0.0055280621 255 255 255
-0.14459652 0.015552051 -0.0054372512 255 255 255
-0.14389744 0.015951302 -0.0052783955 255 255 255
-0.15001519 0.016278191 -0.0051018405 255 255 255
-0.14978504 0.016591726 -0.0055814246 255 255 255
-0.14612234 0.016893273 -0.0055280584 255 255 255
-0.14543892 0.016591141 -0.0055379341 255 255 255
-0.14447547 0.016351707 -0.0055903057 255 255 255
-0.14389609 0.016461467 -0.005462565 255 255 255
-0.14926985 0.017305462 -0.0055204197 255 255 255
-0.1487529 0.017782282 -0.0055743675 255 255 255
-0.14743786 0.01739502 -0.0055384957 255 255 255
-0.14653014 0.017252691 -0.0055598379 255 255 255
-0.14569063 0.017359717 -0.0055761202 255 255 255
-0.14448662 0.017513284 -0.0055210949 255 255 255
-0.1482794 0.01821935 -0.0055387882 255 255 255
-0.14744151 0.018498238 -0.0054941322 255 255 255
-0.14650846 0.018542429 -0.0055401884 255 255 255
-0.14549704 0.01828404 -0.0055056284 255 255 255
-0.14905049 0.0128732 -0.0047160867 255 255 255
-0.14851028 0.012560206 -0.0045321435 255 255 255
-0.14748663 0.012226906 -0.0044392245 255 255 255
-0.14643849 0.0122618 -0.0044880216 255 255 255
-0.14555757 0.0126786 -0.0045014964 255 255 255
-0.14943276 0.013397211 -0.004488654 255 255 255
-0.14504561 0.013133748 -0.0045822519 255 255 255
-0.14481126 0.013453332 -0.00453354 255 255 255
-0.15004668 0.01474377 -0.0045903702 255 255 255
-0.14988136 0.014230432 -0.004494403 255 255 255
-0.14453298 0.014491283 -0.004523254 255 255 255
-0.15006672 0.01550692 -0.0046959114 255 255 255
-0.14995258 0.015709883 -0.0042305761 255 255 255
-0.14506276 0.015914442 -0.0044093123 255 255 255
-0.14458574 0.015554992 -0.0044969264 255 255 255
-0.14390613 0.015810352 -0.004540476 255 255 255
-0.14980079 0.016577451 -0.0045078183 255 255 255
-0.14618316 0.016858025 -0.004425793 255 255 255
-0.14547423 0.016568623 -0.0046935701 255 255 255
-0.14428699 0.016650736 -0.0044400701 255 255 255
-0.14390832 0.01644462 -0.0045839506 255 255 255
-0.14927562 0.017325487 -0.0044894055 255 255 255
-0.14869998 0.017848203 -0.004457877 255 255 255
-0.14638425 0.017144404 -0.0047762925 255 255 255
-0.14527342 0.017850382 -0.004425812 255 255 255
-0.14452797 0.017447801 -0.0045347358 255 255 255
-0.14824556 0.018200675 -0.004632521 255 255 255
-0.14748396 0.018414577 -0.0045286948 255 255 255
-0.14648174 0.018463459 -0.004560939 255 255 255
-0.14563569 0.018263478 -0.0045550996 255 255 255
-0.14834705 0.012758324 -0.003723908 255 255 255
-0.14750265 0.012629461 -0.0034261446 255 255 255
-0.14646614 0.012657712 -0.0034617633 255 255 255
-0.14572762 0.012770055 -0.0037344035 255 255 255
-0.14916649 0.013606383 -0.0036602395 255 255 255
-0.14860605 0.013312283 -0.003320225 255 255 255
-0.1452927 0.013289678 -0.0033861774 255 255 255
-0.1447784 0.013628655 -0.0036920598 255 255 255
-0.14950557 0.014408944 -0.0035260294 255 255 255
-0.14463662 0.0145002 -0.0035172151 255 255 255
-0.14972356 0.015541242 -0.0035526536 255 255 255
-0.14514451 0.015658619 -0.0038610927 255 255 255
-0.1444349 0.015522013 -0.003612461 255 255 255
-0.14931628 0.016414596 -0.003656564 255 255 255
-0.14858404 0.016711729 -0.0035123532 255 255 255
-0.14789876 0.01686612 -0.0036392349 255 255 255
-0.14513026 0.016660651 -0.0033235098 255 255 255
-0.14451742 0.016513618 -0.003531493 255 255 255
-0.14910123 0.017191274 -0.0038154291 255 255 255
-0.1484925 0.017523456 -0.0034931209 255 255 255
-0.14751822 0.017821921 -0.0033297532 255 255 255
-0.14648578 0.017811678 -0.0032675639 255 255 255
-0.14547101 0.017583083 -0.0035038688 255 255 255
-0.14473698 0.017224541 -0.0037986794 255 255 255
-0.14818771 0.018002434 -0.0039652395 255 255 255
-0.14734557 0.018200057 -0.0038816978 255 255 255
-0.14652635 0.018207302 -0.0038709086 255 255 255
-0.14577244 0.018075241 -0.0039652395 255 255 255
-0.14834338 0.013680625 -0.0027794451 255 255 255
-0.14747396 0.013448591 -0.0026201957 255 255 255
-0.14651801 0.013431257 -0.0025945208 255 255 255
-0.1456968 0.013589085 -0.0027446686 255 255 255
-0.14913751 0.014698516 -0.002736554 255 255 255
-0.14852573 0.014382047 -0.002449116 255 255 255
-0.14754158 0.014124166 -0.0022132425 255 255 255
-0.14642103 0.014294312 -0.0021489249 255 255 255
-0.14547956 0.014425607 -0.0024679543 255 255 255
-0.14486024 0.014630109 -0.0028810492 255 255 255
-0.14920418 0.01556951 -0.0026895646 255 255 255
-0.14860086 0.01563411 -0.0022260875 255 255 255
-0.14619868 0.015567807 -0.0020471772 255 255 255
-0.14547254 0.015574335 -0.0023772595 255 255 255
-0.14482726 0.015567807 -0.0028804352 255 255 255
-0.14905818 0.016304336 -0.002807186 255 255 255
-0.14849305 0.016564444 -0.0025108764 255 255 255
-0.14751793 0.016653795 -0.002220267 255 255 255
-0.14641948 0.016599884 -0.0023184887 255 255 255
-0.14548965 0.016500937 -0.0026420357 255 255 255
-0.14833848 0.017137624 -0.0028210094 255 255 255
-0.14746934 0.017255927 -0.0026880966 255 255 255
-0.14651595 0.017295415 -0.0027597195 255 255 255
-0.1457684 0.017130543 -0.0028295447 255 255 255
-0.14816543 0.014857423 -0.0019862016 255 255 255
-0.14745344 0.014658677 -0.0019459196 255 255 255
-0.14660463 0.014835584 -0.0019702634 255 255 255
-0.14818628 0.01535428 -0.0019726609 255 255 255
-0.14752287 0.015613551 -0.0018640353 255 255 255
-0.14647727 0.015596449 -0.0019305012 255 255 255
-0.14727844 0.016250189 -0.0019785305 255 255 255
-0.14676698 0.016211225 -0.0019761731 255 255 255
0 0 0 1 0 0 0 1 0 0 0 1 0 0 0 0 0 172 1 0 0
